<svg width="342" height="74" viewBox="0 0 342 74" fill="none" xmlns="http://www.w3.org/2000/svg">
<path d="M328.923 19C328.923 20.1046 328.045 21 326.962 21C325.878 21 325 20.1046 325 19C325 17.8954 325.878 17 326.962 17C328.045 17 328.923 17.8954 328.923 19Z" fill="black"/>
<path d="M335.462 19C335.462 20.1046 334.583 21 333.5 21C332.417 21 331.539 20.1046 331.539 19C331.539 17.8954 332.417 17 333.5 17C334.583 17 335.462 17.8954 335.462 19Z" fill="black"/>
<path d="M342 19C342 20.1046 341.122 21 340.039 21C338.955 21 338.077 20.1046 338.077 19C338.077 17.8954 338.955 17 340.039 17C341.122 17 342 17.8954 342 19Z" fill="black"/>
<path opacity="0.6" d="M8.09387 6.98438H4.8595V17H3.547V6.98438H0.320435V5.79688H8.09387V6.98438ZM12.4689 10.2969C12.2449 10.125 11.922 10.0391 11.5001 10.0391C10.9532 10.0391 10.4949 10.2969 10.1251 10.8125C9.76054 11.3281 9.57825 12.0312 9.57825 12.9219V17H8.297V9H9.57825V10.6484H9.6095C9.79179 10.0859 10.0704 9.64844 10.4454 9.33594C10.8204 9.01823 11.2397 8.85938 11.7032 8.85938C12.0366 8.85938 12.2918 8.89583 12.4689 8.96875V10.2969ZM20.2892 13.3203H14.6407C14.6616 14.2109 14.9012 14.8984 15.3595 15.3828C15.8178 15.8672 16.448 16.1094 17.2501 16.1094C18.1512 16.1094 18.9793 15.8125 19.7345 15.2188V16.4219C19.0314 16.9323 18.1017 17.1875 16.9454 17.1875C15.8152 17.1875 14.9272 16.8255 14.2814 16.1016C13.6355 15.3724 13.3126 14.349 13.3126 13.0312C13.3126 11.7865 13.6642 10.7734 14.3673 9.99219C15.0756 9.20573 15.9532 8.8125 17.0001 8.8125C18.047 8.8125 18.8569 9.15104 19.4298 9.82812C20.0027 10.5052 20.2892 11.4453 20.2892 12.6484V13.3203ZM18.9767 12.2344C18.9715 11.4948 18.7918 10.9193 18.4376 10.5078C18.0887 10.0964 17.6017 9.89062 16.9767 9.89062C16.3725 9.89062 15.8595 10.1068 15.4376 10.5391C15.0157 10.9714 14.7553 11.5365 14.6564 12.2344H18.9767ZM28.8751 17H27.5939V12.4375C27.5939 10.7396 26.9741 9.89062 25.7345 9.89062C25.0939 9.89062 24.5626 10.1328 24.1407 10.6172C23.7241 11.0964 23.5157 11.7031 23.5157 12.4375V17H22.2345V9H23.5157V10.3281H23.547C24.1512 9.31771 25.0262 8.8125 26.172 8.8125C27.047 8.8125 27.7163 9.09635 28.1798 9.66406C28.6434 10.2266 28.8751 11.0417 28.8751 12.1094V17ZM38.1251 17H36.8439V15.6406H36.8126C36.2189 16.6719 35.3022 17.1875 34.0626 17.1875C33.0574 17.1875 32.2527 16.8307 31.6486 16.1172C31.0496 15.3984 30.7501 14.4219 30.7501 13.1875C30.7501 11.8646 31.0835 10.8047 31.7501 10.0078C32.4168 9.21094 33.3048 8.8125 34.4142 8.8125C35.5131 8.8125 36.3126 9.24479 36.8126 10.1094H36.8439V5.15625H38.1251V17ZM36.8439 13.3828V12.2031C36.8439 11.5573 36.6303 11.0104 36.2032 10.5625C35.7762 10.1146 35.2345 9.89062 34.5782 9.89062C33.797 9.89062 33.1824 10.1771 32.7345 10.75C32.2866 11.3229 32.0626 12.1146 32.0626 13.125C32.0626 14.0469 32.2762 14.776 32.7032 15.3125C33.1355 15.8438 33.7137 16.1094 34.4376 16.1094C35.1512 16.1094 35.7293 15.8516 36.172 15.3359C36.6199 14.8203 36.8439 14.1693 36.8439 13.3828ZM41.3751 6.96875C41.146 6.96875 40.9506 6.89062 40.7892 6.73438C40.6277 6.57812 40.547 6.38021 40.547 6.14062C40.547 5.90104 40.6277 5.70312 40.7892 5.54688C40.9506 5.38542 41.146 5.30469 41.3751 5.30469C41.6095 5.30469 41.8074 5.38542 41.9689 5.54688C42.1355 5.70312 42.2189 5.90104 42.2189 6.14062C42.2189 6.36979 42.1355 6.5651 41.9689 6.72656C41.8074 6.88802 41.6095 6.96875 41.3751 6.96875ZM42.0001 17H40.7189V9H42.0001V17ZM51.2345 17H49.9532V12.4375C49.9532 10.7396 49.3335 9.89062 48.0939 9.89062C47.4532 9.89062 46.922 10.1328 46.5001 10.6172C46.0835 11.0964 45.8751 11.7031 45.8751 12.4375V17H44.5939V9H45.8751V10.3281H45.9064C46.5105 9.31771 47.3855 8.8125 48.5314 8.8125C49.4064 8.8125 50.0756 9.09635 50.5392 9.66406C51.0027 10.2266 51.2345 11.0417 51.2345 12.1094V17ZM60.4845 16.3594C60.4845 19.2969 59.0782 20.7656 56.2657 20.7656C55.2762 20.7656 54.4116 20.5781 53.672 20.2031V18.9219C54.573 19.4219 55.4324 19.6719 56.2501 19.6719C58.2189 19.6719 59.2032 18.625 59.2032 16.5312V15.6562H59.172C58.5626 16.6771 57.646 17.1875 56.422 17.1875C55.4272 17.1875 54.6251 16.8333 54.0157 16.125C53.4116 15.4115 53.1095 14.4557 53.1095 13.2578C53.1095 11.8984 53.435 10.8177 54.0861 10.0156C54.7423 9.21354 55.6381 8.8125 56.7736 8.8125C57.8517 8.8125 58.6512 9.24479 59.172 10.1094H59.2032V9H60.4845V16.3594ZM59.2032 13.3828V12.2031C59.2032 11.5677 58.9871 11.0234 58.5548 10.5703C58.1277 10.1172 57.5939 9.89062 56.9532 9.89062C56.1616 9.89062 55.5418 10.1797 55.0939 10.7578C54.646 11.3307 54.422 12.1354 54.422 13.1719C54.422 14.0625 54.6355 14.776 55.0626 15.3125C55.4949 15.8438 56.0652 16.1094 56.7736 16.1094C57.4923 16.1094 58.0756 15.8542 58.5236 15.3438C58.9767 14.8333 59.2032 14.1797 59.2032 13.3828ZM68.1251 6.96875C67.896 6.96875 67.7006 6.89062 67.5392 6.73438C67.3777 6.57812 67.297 6.38021 67.297 6.14062C67.297 5.90104 67.3777 5.70312 67.5392 5.54688C67.7006 5.38542 67.896 5.30469 68.1251 5.30469C68.3595 5.30469 68.5574 5.38542 68.7189 5.54688C68.8855 5.70312 68.9689 5.90104 68.9689 6.14062C68.9689 6.36979 68.8855 6.5651 68.7189 6.72656C68.5574 6.88802 68.3595 6.96875 68.1251 6.96875ZM68.7501 17H67.4689V9H68.7501V17ZM77.9845 17H76.7032V12.4375C76.7032 10.7396 76.0835 9.89062 74.8439 9.89062C74.2032 9.89062 73.672 10.1328 73.2501 10.6172C72.8335 11.0964 72.6251 11.7031 72.6251 12.4375V17H71.3439V9H72.6251V10.3281H72.6564C73.2605 9.31771 74.1355 8.8125 75.2814 8.8125C76.1564 8.8125 76.8256 9.09635 77.2892 9.66406C77.7527 10.2266 77.9845 11.0417 77.9845 12.1094V17ZM93.3439 16.2344C92.2189 16.8698 90.9689 17.1875 89.5939 17.1875C87.9949 17.1875 86.7006 16.6719 85.7111 15.6406C84.7267 14.6094 84.2345 13.2448 84.2345 11.5469C84.2345 9.8125 84.7814 8.39062 85.8751 7.28125C86.9741 6.16667 88.3647 5.60938 90.047 5.60938C91.2657 5.60938 92.2892 5.80729 93.1173 6.20312V7.65625C92.2111 7.08333 91.1381 6.79688 89.8986 6.79688C88.6434 6.79688 87.6147 7.22917 86.8126 8.09375C86.0105 8.95833 85.6095 10.0781 85.6095 11.4531C85.6095 12.8698 85.9819 13.9844 86.7267 14.7969C87.4715 15.6042 88.4819 16.0078 89.7579 16.0078C90.6329 16.0078 91.3907 15.8333 92.0314 15.4844V12.3438H89.5782V11.1562H93.3439V16.2344ZM102.211 13.3203H96.5626C96.5835 14.2109 96.823 14.8984 97.2814 15.3828C97.7397 15.8672 98.3699 16.1094 99.172 16.1094C100.073 16.1094 100.901 15.8125 101.656 15.2188V16.4219C100.953 16.9323 100.024 17.1875 98.8673 17.1875C97.7371 17.1875 96.8491 16.8255 96.2032 16.1016C95.5574 15.3724 95.2345 14.349 95.2345 13.0312C95.2345 11.7865 95.5861 10.7734 96.2892 9.99219C96.9975 9.20573 97.8751 8.8125 98.922 8.8125C99.9689 8.8125 100.779 9.15104 101.352 9.82812C101.925 10.5052 102.211 11.4453 102.211 12.6484V13.3203ZM100.899 12.2344C100.893 11.4948 100.714 10.9193 100.359 10.5078C100.011 10.0964 99.5236 9.89062 98.8986 9.89062C98.2944 9.89062 97.7814 10.1068 97.3595 10.5391C96.9376 10.9714 96.6772 11.5365 96.5782 12.2344H100.899ZM108.328 10.2969C108.104 10.125 107.781 10.0391 107.359 10.0391C106.813 10.0391 106.354 10.2969 105.984 10.8125C105.62 11.3281 105.438 12.0312 105.438 12.9219V17H104.156V9H105.438V10.6484H105.469C105.651 10.0859 105.93 9.64844 106.305 9.33594C106.68 9.01823 107.099 8.85938 107.563 8.85938C107.896 8.85938 108.151 8.89583 108.328 8.96875V10.2969ZM121.078 17H119.797V12.4062C119.797 11.5208 119.659 10.8802 119.383 10.4844C119.112 10.0885 118.654 9.89062 118.008 9.89062C117.461 9.89062 116.995 10.1406 116.609 10.6406C116.229 11.1406 116.039 11.7396 116.039 12.4375V17H114.758V12.25C114.758 10.6771 114.151 9.89062 112.938 9.89062C112.375 9.89062 111.912 10.1276 111.547 10.6016C111.182 11.0703 111 11.6823 111 12.4375V17H109.719V9H111V10.2656H111.031C111.599 9.29688 112.427 8.8125 113.516 8.8125C114.063 8.8125 114.539 8.96615 114.945 9.27344C115.352 9.57552 115.63 9.97396 115.781 10.4688C116.375 9.36458 117.261 8.8125 118.438 8.8125C120.198 8.8125 121.078 9.89844 121.078 12.0703V17ZM129.227 17H127.945V15.75H127.914C127.357 16.7083 126.537 17.1875 125.453 17.1875C124.656 17.1875 124.031 16.9766 123.578 16.5547C123.13 16.1328 122.906 15.5729 122.906 14.875C122.906 13.3802 123.787 12.5104 125.547 12.2656L127.945 11.9297C127.945 10.5703 127.396 9.89062 126.297 9.89062C125.333 9.89062 124.464 10.2188 123.688 10.875V9.5625C124.474 9.0625 125.38 8.8125 126.406 8.8125C128.287 8.8125 129.227 9.80729 129.227 11.7969V17ZM127.945 12.9531L126.016 13.2188C125.422 13.3021 124.974 13.4505 124.672 13.6641C124.37 13.8724 124.219 14.2448 124.219 14.7812C124.219 15.1719 124.357 15.4922 124.633 15.7422C124.914 15.987 125.287 16.1094 125.75 16.1094C126.386 16.1094 126.909 15.888 127.32 15.4453C127.737 14.9974 127.945 14.4323 127.945 13.75V12.9531ZM138.281 17H137V12.4375C137 10.7396 136.38 9.89062 135.141 9.89062C134.5 9.89062 133.969 10.1328 133.547 10.6172C133.13 11.0964 132.922 11.7031 132.922 12.4375V17H131.641V9H132.922V10.3281H132.953C133.557 9.31771 134.432 8.8125 135.578 8.8125C136.453 8.8125 137.123 9.09635 137.586 9.66406C138.05 10.2266 138.281 11.0417 138.281 12.1094V17ZM147.07 9L143.391 18.2812C142.734 19.9375 141.813 20.7656 140.625 20.7656C140.292 20.7656 140.013 20.7318 139.789 20.6641V19.5156C140.065 19.6094 140.318 19.6562 140.547 19.6562C141.193 19.6562 141.677 19.2708 142 18.5L142.641 16.9844L139.516 9H140.938L143.102 15.1562C143.128 15.2344 143.182 15.4375 143.266 15.7656H143.313C143.339 15.6406 143.391 15.4427 143.469 15.1719L145.742 9H147.07Z" fill="#393B41"/>
<path opacity="0.6" d="M7.57043 66.5781C7.57043 67.125 7.47668 67.6198 7.28918 68.0625C7.10168 68.5052 6.83346 68.8854 6.4845 69.2031C6.14075 69.5208 5.72408 69.7656 5.2345 69.9375C4.74491 70.1094 4.20064 70.1953 3.60168 70.1953C2.56002 70.1953 1.78658 70.0391 1.28137 69.7266V68.3672C2.04179 68.8568 2.82043 69.1016 3.61731 69.1016C4.02356 69.1016 4.38814 69.0417 4.71106 68.9219C5.03918 68.8021 5.31783 68.6354 5.547 68.4219C5.77616 68.2083 5.95064 67.9505 6.07043 67.6484C6.19543 67.3464 6.25793 67.0156 6.25793 66.6562C6.25793 65.9271 6.01314 65.3568 5.52356 64.9453C5.03398 64.5286 4.32304 64.3203 3.39075 64.3203C3.23971 64.3203 3.08085 64.3229 2.91418 64.3281C2.74752 64.3333 2.58085 64.3411 2.41418 64.3516C2.24752 64.3568 2.08346 64.3646 1.922 64.375C1.76575 64.3854 1.62252 64.3984 1.49231 64.4141L1.87512 58.7969H7.05481V59.9531H2.9845L2.75793 63.2422C2.9246 63.2318 3.10168 63.224 3.28918 63.2188C3.47668 63.2083 3.64335 63.2031 3.78918 63.2031C4.38293 63.2031 4.91418 63.2812 5.38293 63.4375C5.85168 63.5938 6.24752 63.8177 6.57043 64.1094C6.89856 64.3958 7.14596 64.75 7.31262 65.1719C7.4845 65.5885 7.57043 66.0573 7.57043 66.5781ZM16.5939 64.3516C16.5939 65.2891 16.5079 66.1198 16.3361 66.8438C16.1694 67.5677 15.9246 68.1797 15.6017 68.6797C15.284 69.1745 14.8907 69.5521 14.422 69.8125C13.9585 70.0677 13.4298 70.1953 12.8361 70.1953C12.2736 70.1953 11.771 70.0729 11.3282 69.8281C10.8907 69.5781 10.521 69.2161 10.2189 68.7422C9.91679 68.2682 9.68762 67.6875 9.53137 67C9.37512 66.3073 9.297 65.5156 9.297 64.625C9.297 63.6458 9.37773 62.7812 9.53918 62.0312C9.70585 61.2812 9.94804 60.6536 10.2657 60.1484C10.5835 59.638 10.9767 59.2552 11.4454 59C11.9194 58.7396 12.4611 58.6094 13.0704 58.6094C15.4194 58.6094 16.5939 60.5234 16.5939 64.3516ZM15.2814 64.4766C15.2814 61.2891 14.5236 59.6953 13.0079 59.6953C11.409 59.6953 10.6095 61.3177 10.6095 64.5625C10.6095 67.5885 11.3934 69.1016 12.9611 69.1016C14.5079 69.1016 15.2814 67.5599 15.2814 64.4766ZM18.9923 70.1719C18.7527 70.1719 18.547 70.0859 18.3751 69.9141C18.2085 69.7422 18.1251 69.5365 18.1251 69.2969C18.1251 69.0573 18.2085 68.8516 18.3751 68.6797C18.547 68.5026 18.7527 68.4141 18.9923 68.4141C19.2371 68.4141 19.4454 68.5026 19.6173 68.6797C19.7892 68.8516 19.8751 69.0573 19.8751 69.2969C19.8751 69.5365 19.7892 69.7422 19.6173 69.9141C19.4454 70.0859 19.2371 70.1719 18.9923 70.1719ZM27.3595 58.7969V66.1953H28.797V67.3672H27.3595V70H26.0939V67.3672H20.8282V66.2578C21.3178 65.7057 21.8126 65.1172 22.3126 64.4922C22.8126 63.862 23.2892 63.224 23.7423 62.5781C24.2006 61.9323 24.6225 61.2891 25.0079 60.6484C25.3986 60.0026 25.7267 59.3854 25.9923 58.7969H27.3595ZM22.2736 66.1953H26.0939V60.7109C25.7032 61.3932 25.3335 62.0026 24.9845 62.5391C24.6355 63.0755 24.3022 63.5625 23.9845 64C23.672 64.4375 23.3725 64.8333 23.0861 65.1875C22.7996 65.5417 22.5288 65.8776 22.2736 66.1953ZM38.6095 70H36.7814L32.4532 64.875C32.2918 64.6823 32.1928 64.5521 32.1564 64.4844H32.1251V70H30.8126V58.7969H32.1251V64.0625H32.1564C32.2293 63.9479 32.3282 63.8203 32.4532 63.6797L36.6407 58.7969H38.2736L33.4689 64.1719L38.6095 70ZM51.1095 59.9844H47.8751V70H46.5626V59.9844H43.3361V58.7969H51.1095V59.9844ZM61.8907 62L59.4923 70H58.1642L56.5157 64.2734C56.4532 64.0547 56.4116 63.8073 56.3907 63.5312H56.3595C56.3439 63.7188 56.2892 63.9609 56.1954 64.2578L54.4064 70H53.1251L50.7032 62H52.047L53.7032 68.0156C53.7553 68.1979 53.7918 68.4375 53.8126 68.7344H53.8751C53.8907 68.5052 53.9376 68.2604 54.0157 68L55.8595 62H57.0314L58.6876 68.0312C58.7397 68.224 58.7788 68.4635 58.8048 68.75H58.8673C58.8777 68.5469 58.922 68.3073 59.0001 68.0312L60.6251 62H61.8907ZM69.8048 66.3203H64.1564C64.1772 67.2109 64.4168 67.8984 64.8751 68.3828C65.3335 68.8672 65.9637 69.1094 66.7657 69.1094C67.6668 69.1094 68.4949 68.8125 69.2501 68.2188V69.4219C68.547 69.9323 67.6173 70.1875 66.4611 70.1875C65.3309 70.1875 64.4428 69.8255 63.797 69.1016C63.1512 68.3724 62.8282 67.349 62.8282 66.0312C62.8282 64.7865 63.1798 63.7734 63.8829 62.9922C64.5913 62.2057 65.4689 61.8125 66.5157 61.8125C67.5626 61.8125 68.3725 62.151 68.9454 62.8281C69.5184 63.5052 69.8048 64.4453 69.8048 65.6484V66.3203ZM68.4923 65.2344C68.4871 64.4948 68.3074 63.9193 67.9532 63.5078C67.6043 63.0964 67.1173 62.8906 66.4923 62.8906C65.8881 62.8906 65.3751 63.1068 64.9532 63.5391C64.5314 63.9714 64.271 64.5365 64.172 65.2344H68.4923ZM78.1798 66.3203H72.5314C72.5522 67.2109 72.7918 67.8984 73.2501 68.3828C73.7085 68.8672 74.3387 69.1094 75.1407 69.1094C76.0418 69.1094 76.8699 68.8125 77.6251 68.2188V69.4219C76.922 69.9323 75.9923 70.1875 74.8361 70.1875C73.7059 70.1875 72.8178 69.8255 72.172 69.1016C71.5262 68.3724 71.2032 67.349 71.2032 66.0312C71.2032 64.7865 71.5548 63.7734 72.2579 62.9922C72.9663 62.2057 73.8439 61.8125 74.8907 61.8125C75.9376 61.8125 76.7475 62.151 77.3204 62.8281C77.8934 63.5052 78.1798 64.4453 78.1798 65.6484V66.3203ZM76.8673 65.2344C76.8621 64.4948 76.6824 63.9193 76.3282 63.5078C75.9793 63.0964 75.4923 62.8906 74.8673 62.8906C74.2631 62.8906 73.7501 63.1068 73.3282 63.5391C72.9064 63.9714 72.646 64.5365 72.547 65.2344H76.8673ZM83.8361 69.9219C83.534 70.0885 83.1355 70.1719 82.6407 70.1719C81.2397 70.1719 80.5392 69.3906 80.5392 67.8281V63.0938H79.1642V62H80.5392V60.0469L81.8204 59.6328V62H83.8361V63.0938H81.8204V67.6016C81.8204 68.138 81.9116 68.5208 82.0939 68.75C82.2762 68.9792 82.5782 69.0938 83.0001 69.0938C83.323 69.0938 83.6017 69.0052 83.8361 68.8281V69.9219ZM85.0626 69.7109V68.3359C85.7605 68.8516 86.5288 69.1094 87.3673 69.1094C88.4923 69.1094 89.0548 68.7344 89.0548 67.9844C89.0548 67.7708 89.0053 67.5911 88.9064 67.4453C88.8126 67.2943 88.6824 67.1615 88.5157 67.0469C88.3543 66.9323 88.1616 66.8307 87.9376 66.7422C87.7189 66.6484 87.4819 66.5521 87.2267 66.4531C86.8725 66.3125 86.56 66.1719 86.2892 66.0312C86.0236 65.8854 85.7996 65.724 85.6173 65.5469C85.4402 65.3646 85.3048 65.1589 85.2111 64.9297C85.1225 64.7005 85.0782 64.4323 85.0782 64.125C85.0782 63.75 85.1642 63.4193 85.3361 63.1328C85.5079 62.8411 85.7371 62.599 86.0236 62.4062C86.31 62.2083 86.6355 62.0599 87.0001 61.9609C87.3699 61.862 87.7501 61.8125 88.1407 61.8125C88.8335 61.8125 89.4532 61.9323 90.0001 62.1719V63.4688C89.4116 63.0833 88.7345 62.8906 87.9689 62.8906C87.7293 62.8906 87.5131 62.9193 87.3204 62.9766C87.1277 63.0286 86.9611 63.1042 86.8204 63.2031C86.685 63.3021 86.5782 63.4219 86.5001 63.5625C86.4272 63.6979 86.3907 63.849 86.3907 64.0156C86.3907 64.224 86.4272 64.3984 86.5001 64.5391C86.5782 64.6797 86.6902 64.8047 86.8361 64.9141C86.9819 65.0234 87.159 65.1224 87.3673 65.2109C87.5756 65.2995 87.8126 65.3958 88.0782 65.5C88.4324 65.6354 88.7501 65.776 89.0314 65.9219C89.3126 66.0625 89.5522 66.224 89.7501 66.4062C89.948 66.5833 90.0991 66.7891 90.2032 67.0234C90.3126 67.2578 90.3673 67.5365 90.3673 67.8594C90.3673 68.2552 90.2788 68.599 90.1017 68.8906C89.9298 69.1823 89.698 69.4245 89.4064 69.6172C89.1147 69.8099 88.7788 69.9531 88.3986 70.0469C88.0184 70.1406 87.6199 70.1875 87.2032 70.1875C86.3803 70.1875 85.6668 70.0286 85.0626 69.7109Z" fill="#393B41"/>
<path d="M12.549 45H9.83411L7.59778 41.25C7.39596 40.9049 7.19739 40.612 7.00208 40.3711C6.81327 40.1237 6.61796 39.9219 6.41614 39.7656C6.22083 39.6094 6.00598 39.4954 5.77161 39.4238C5.53723 39.3522 5.27356 39.3164 4.98059 39.3164H4.04309V45H1.72864V30.9961H6.33801C6.99556 30.9961 7.60103 31.0742 8.15442 31.2305C8.7078 31.3867 9.18958 31.6243 9.59973 31.9434C10.0099 32.2559 10.3289 32.6497 10.5568 33.125C10.7911 33.5938 10.9083 34.1439 10.9083 34.7754C10.9083 35.2702 10.8335 35.7259 10.6837 36.1426C10.5405 36.5527 10.3322 36.9206 10.0587 37.2461C9.79179 37.5651 9.46627 37.8385 9.08215 38.0664C8.70455 38.2943 8.27812 38.4701 7.80286 38.5938V38.6328C8.05676 38.776 8.27812 38.9355 8.46692 39.1113C8.65572 39.2806 8.83476 39.4564 9.00403 39.6387C9.1733 39.821 9.33931 40.0293 9.50208 40.2637C9.67135 40.4915 9.85689 40.7585 10.0587 41.0645L12.549 45ZM4.04309 32.8809V37.4316H5.97668C6.33476 37.4316 6.66353 37.3763 6.96301 37.2656C7.269 37.1549 7.53267 36.9954 7.75403 36.7871C7.97538 36.5788 8.14791 36.3249 8.27161 36.0254C8.3953 35.7259 8.45715 35.3906 8.45715 35.0195C8.45715 34.349 8.24556 33.8249 7.82239 33.4473C7.39921 33.0697 6.79049 32.8809 5.99622 32.8809H4.04309ZM21.8751 40.6152H15.0587C15.0848 41.5397 15.368 42.2526 15.9083 42.7539C16.4552 43.2552 17.2039 43.5059 18.1544 43.5059C19.2221 43.5059 20.2019 43.1868 21.0939 42.5488V44.375C20.1824 44.9479 18.978 45.2344 17.4806 45.2344C16.0092 45.2344 14.8536 44.7819 14.0138 43.877C13.1805 42.9655 12.7638 41.6862 12.7638 40.0391C12.7638 38.4831 13.2228 37.2168 14.1407 36.2402C15.0652 35.2572 16.2111 34.7656 17.5782 34.7656C18.9454 34.7656 20.0034 35.2051 20.7521 36.084C21.5008 36.9629 21.8751 38.1836 21.8751 39.7461V40.6152ZM19.6876 39.0137C19.6811 38.1999 19.4891 37.5684 19.1115 37.1191C18.7338 36.6634 18.213 36.4355 17.549 36.4355C16.8979 36.4355 16.3445 36.6732 15.8888 37.1484C15.4396 37.6237 15.1629 38.2454 15.0587 39.0137H19.6876ZM32.6466 35L28.7794 45H26.3282L22.6466 35H25.1075L27.3243 41.9922C27.4936 42.5065 27.5978 42.9557 27.6368 43.3398H27.6661C27.7247 42.8581 27.8159 42.4219 27.9396 42.0312L30.2638 35H32.6466ZM38.4669 45.2344C36.924 45.2344 35.6902 44.7689 34.7657 43.8379C33.8478 42.9004 33.3888 41.6602 33.3888 40.1172C33.3888 38.4375 33.8673 37.1257 34.8243 36.1816C35.7879 35.2376 37.0835 34.7656 38.7111 34.7656C40.2736 34.7656 41.491 35.2246 42.3634 36.1426C43.2358 37.0605 43.672 38.3333 43.672 39.9609C43.672 41.556 43.2 42.8353 42.256 43.7988C41.3185 44.7559 40.0555 45.2344 38.4669 45.2344ZM38.5743 36.5723C37.6889 36.5723 36.9891 36.8815 36.4747 37.5C35.9604 38.1185 35.7032 38.9714 35.7032 40.0586C35.7032 41.1068 35.9637 41.9336 36.4845 42.5391C37.0053 43.138 37.7019 43.4375 38.5743 43.4375C39.4663 43.4375 40.1499 43.1413 40.6251 42.5488C41.1069 41.9564 41.3478 41.1133 41.3478 40.0195C41.3478 38.9193 41.1069 38.0697 40.6251 37.4707C40.1499 36.8717 39.4663 36.5723 38.5743 36.5723ZM48.2618 45H45.9865V30.1953H48.2618V45ZM59.9415 45H57.6759V43.418H57.6368C56.9793 44.6289 55.9572 45.2344 54.5704 45.2344C52.2072 45.2344 51.0255 43.8151 51.0255 40.9766V35H53.2911V40.7422C53.2911 42.5391 53.9845 43.4375 55.3712 43.4375C56.0418 43.4375 56.5919 43.1901 57.0216 42.6953C57.4578 42.2005 57.6759 41.5527 57.6759 40.752V35H59.9415V45ZM68.174 44.8926C67.7312 45.1139 67.1486 45.2246 66.4259 45.2246C64.4858 45.2246 63.5157 44.2936 63.5157 42.4316V36.7773H61.8458V35H63.5157V32.6855L65.7814 32.041V35H68.174V36.7773H65.7814V41.7773C65.7814 42.3698 65.8888 42.793 66.1036 43.0469C66.3185 43.3008 66.6766 43.4277 67.1779 43.4277C67.562 43.4277 67.894 43.3171 68.174 43.0957V44.8926ZM71.2697 32.9004C70.8986 32.9004 70.5795 32.7799 70.3126 32.5391C70.0522 32.2982 69.922 31.9922 69.922 31.6211C69.922 31.25 70.0522 30.9408 70.3126 30.6934C70.5795 30.446 70.8986 30.3223 71.2697 30.3223C71.6538 30.3223 71.9793 30.446 72.2462 30.6934C72.5131 30.9408 72.6466 31.25 72.6466 31.6211C72.6466 31.9727 72.5131 32.2754 72.2462 32.5293C71.9793 32.7767 71.6538 32.9004 71.2697 32.9004ZM72.3927 45H70.1271V35H72.3927V45ZM79.795 45.2344C78.2521 45.2344 77.0184 44.7689 76.0939 43.8379C75.1759 42.9004 74.7169 41.6602 74.7169 40.1172C74.7169 38.4375 75.1954 37.1257 76.1525 36.1816C77.116 35.2376 78.4116 34.7656 80.0392 34.7656C81.6017 34.7656 82.8191 35.2246 83.6915 36.1426C84.5639 37.0605 85.0001 38.3333 85.0001 39.9609C85.0001 41.556 84.5281 42.8353 83.5841 43.7988C82.6466 44.7559 81.3836 45.2344 79.795 45.2344ZM79.9025 36.5723C79.017 36.5723 78.3172 36.8815 77.8029 37.5C77.2885 38.1185 77.0314 38.9714 77.0314 40.0586C77.0314 41.1068 77.2918 41.9336 77.8126 42.5391C78.3335 43.138 79.0301 43.4375 79.9025 43.4375C80.7944 43.4375 81.478 43.1413 81.9532 42.5488C82.435 41.9564 82.6759 41.1133 82.6759 40.0195C82.6759 38.9193 82.435 38.0697 81.9532 37.4707C81.478 36.8717 80.7944 36.5723 79.9025 36.5723ZM96.2208 45H93.9552V39.3652C93.9552 37.4967 93.2944 36.5625 91.9728 36.5625C91.2827 36.5625 90.713 36.8229 90.2638 37.3438C89.8146 37.8581 89.59 38.5091 89.59 39.2969V45H87.3146V35H89.59V36.6602H89.629C90.3777 35.3971 91.4585 34.7656 92.8712 34.7656C93.9585 34.7656 94.7885 35.1204 95.3615 35.8301C95.9344 36.5332 96.2208 37.5521 96.2208 38.8867V45Z" fill="black"/>
</svg>
